<svg
  aria-hidden="true"
  height="1em"
  preserveAspectRatio="xMidYMid meet"
  role="img"
  viewBox="0 0 24 19.1"
  width="1em"
  xmlns="http://www.w3.org/2000/svg"
>
  <path
    d="m 12.629093,8.4763371 3.214033,6.4532689 H 9.4150594 Z m 5.632285,6.2560289 1.536108,0.920775 m 1.891767,-0.674638 c 1.002612,0 1.809769,0.807157 1.809769,1.809769 0,1.002612 -0.807157,1.809769 -1.809769,1.809769 -1.002612,0 -1.809769,-0.807157 -1.809769,-1.809769 0,-1.002612 0.807157,-1.809769 1.809769,-1.809769 z M 9.1827703,4.1197096 10.631494,7.1165823 M 7.6529667,0.5001719 H 11.272505 L 9.1827703,4.1197096 H 5.5632328 Z m 8.0202003,9.0350365 4.65849,-3.4864236 m 1.358402,-3.1357155 c 1.002613,0 1.809769,0.8071568 1.809769,1.8097688 0,1.002612 -0.807156,1.8097687 -1.809769,1.8097687 -1.002611,0 -1.809768,-0.8071567 -1.809768,-1.8097687 0,-1.002612 0.807157,-1.8097688 1.809768,-1.8097688 z M 2.3873751,9.184107 l -1.88693626,1.091862 0.002017,2.180093 1.88907446,1.088171 1.8869362,-1.091781 -0.00202,-2.180094 z m 7.2389543,2.175826 -4.862183,0.004 z"
  />
</svg>
