<?xml version="1.0" encoding="UTF-8" standalone="no"?>
<!-- Created with Inkscape (http://www.inkscape.org/) -->

<svg
   xmlns:dc="http://purl.org/dc/elements/1.1/"
   xmlns:cc="http://creativecommons.org/ns#"
   xmlns:rdf="http://www.w3.org/1999/02/22-rdf-syntax-ns#"
   xmlns:svg="http://www.w3.org/2000/svg"
   xmlns="http://www.w3.org/2000/svg"
   xmlns:sodipodi="http://sodipodi.sourceforge.net/DTD/sodipodi-0.dtd"
   xmlns:inkscape="http://www.inkscape.org/namespaces/inkscape"
   width="99.246002"
   height="99.246246"
   id="svg3729"
   version="1.1"
   inkscape:version="0.92.3 (2405546, 2018-03-11)"
   sodipodi:docname="nest-desktop.svg">
  <defs
     id="defs3731" />
  <sodipodi:namedview
     id="base"
     pagecolor="#ffffff"
     bordercolor="#666666"
     borderopacity="1.0"
     inkscape:pageopacity="0.0"
     inkscape:pageshadow="2"
     inkscape:zoom="5.6"
     inkscape:cx="88.83651"
     inkscape:cy="73.840935"
     inkscape:document-units="px"
     inkscape:current-layer="g3339"
     showgrid="false"
     fit-margin-top="0"
     fit-margin-left="0"
     fit-margin-right="0"
     fit-margin-bottom="0"
     inkscape:window-width="1869"
     inkscape:window-height="1138"
     inkscape:window-x="51"
     inkscape:window-y="34"
     inkscape:window-maximized="1" />
  <metadata
     id="metadata3734">
    <rdf:RDF>
      <cc:Work
         rdf:about="">
        <dc:format>image/svg+xml</dc:format>
        <dc:type
           rdf:resource="http://purl.org/dc/dcmitype/StillImage" />
        <dc:title></dc:title>
      </cc:Work>
    </rdf:RDF>
  </metadata>
  <g
     inkscape:label="Layer 1"
     inkscape:groupmode="layer"
     id="layer1"
     transform="translate(-353.26166,-545.5962)">
    <g
       id="g3339"
       transform="translate(1027.2288,-45.71429)">
      <path
         id="path3341"
         style="fill:#ff6633;fill-opacity:1;fill-rule:nonzero;stroke:none"
         d="m -574.72114,674.86299 c 0,8.09375 -6.67775,15.69375 -14.654,15.69375 h -84.591 l -10e-4,-84.5925 c 0,-8.0925 6.46375,-14.65375 14.44,-14.65375 h 70.152 c 7.97625,0 14.654,8.16309 14.654,14.65425 z"
         inkscape:connector-curvature="0"
         sodipodi:nodetypes="csccssscc" />
      <path
         inkscape:connector-curvature="0"
         id="path3356"
         style="font-style:normal;font-variant:normal;font-weight:bold;font-stretch:normal;font-size:74px;line-height:0%;font-family:'Courier 10 Pitch';-inkscape-font-specification:'Courier 10 Pitch Bold';text-align:start;letter-spacing:-2.5px;word-spacing:0px;writing-mode:lr-tb;text-anchor:start;fill:#ffffff;fill-opacity:1;stroke:none"
         d="m -628.49863,649.8526 v -12.062 c 0,-9.47199 -3.626,-14.208 -11.47,-14.208 -4.58799,0 -7.918,1.77601 -10.212,5.254 v -2.812 c 0,-0.96199 -0.666,-1.554 -2.072,-1.554 h -6.142 c -3.03399,0 -4.514,0.96201 -4.514,3.996 0,2.59 1.33201,3.922 3.922,3.922 0.148,0 0.37,0 0.592,0 v 17.464 c -0.148,0 -0.296,0 -0.444,0 -2.73799,0 -4.07,1.33201 -4.07,3.996 0,2.96 1.40601,3.996 4.514,3.996 h 8.954 c 3.108,0 4.514,-1.036 4.514,-3.996 0,-2.66399 -1.332,-3.996 -4.07,-3.996 -0.148,0 -0.296,0 -0.444,0 v -10.434 c 0,-5.10599 3.03401,-7.992 6.808,-7.992 4.144,0 5.254,2.73801 5.254,7.992 v 10.434 c -0.148,0 -0.296,0 -0.444,0 -2.73799,0 -4.144,1.33201 -4.144,3.996 0,2.96 1.48001,3.996 4.588,3.996 h 8.88 c 3.108,0 4.514,-1.036 4.514,-3.996 0,-2.66399 -1.332,-3.996 -4.07,-3.996 -0.148,0 -0.296,0 -0.444,0" />
      <circle
         id="path3347"
         style="fill:#ffffff;fill-opacity:1;stroke:none;stroke-width:0.72267544"
         cx="-611.21106"
         cy="629.39032"
         r="6.5" />
      <circle
         style="fill:#ffffff;fill-opacity:1;stroke:none;stroke-width:0.72267544"
         id="path3349"
         cx="-589.21106"
         cy="629.39032"
         r="6.5" />
      <circle
         id="path3351"
         style="fill:#ffffff;fill-opacity:1;stroke:none;stroke-width:0.72267544"
         cx="-589.21106"
         cy="651.39032"
         r="6.5" />
      <circle
         style="fill:#ffffff;fill-opacity:1;stroke:none;stroke-width:0.72267544"
         id="path3353"
         cx="-611.21106"
         cy="651.39032"
         r="6.5" />
    </g>
  </g>
</svg>
