<?xml version="1.0" encoding="UTF-8" standalone="no"?>
<svg
   id="Layer_1"
   data-name="Layer 1"
   viewBox="0 0 1149.4447 318.56101"
   version="1.1"
   width="1149.4447"
   height="318.561"
   xmlns="http://www.w3.org/2000/svg"
   xmlns:svg="http://www.w3.org/2000/svg"
   xmlns:rdf="http://www.w3.org/1999/02/22-rdf-syntax-ns#"
   xmlns:cc="http://creativecommons.org/ns#"
   xmlns:dc="http://purl.org/dc/elements/1.1/">
  <metadata
     id="metadata56">
    <rdf:RDF>
      <cc:Work
         rdf:about="">
        <dc:format>image/svg+xml</dc:format>
        <dc:type
           rdf:resource="http://purl.org/dc/dcmitype/StillImage" />
      </cc:Work>
    </rdf:RDF>
  </metadata>
  <defs
     id="defs9">
    <linearGradient
       id="linear-gradient"
       x1="119.561"
       y1="280.04901"
       x2="438.12201"
       y2="280.04901"
       gradientUnits="userSpaceOnUse">
      <stop
         offset="0"
         stop-color="#ffdb00"
         id="stop2" />
      <stop
         offset="0.5"
         stop-color="#56c54e"
         id="stop4" />
      <stop
         offset="1"
         stop-color="#007f7b"
         id="stop6" />
    </linearGradient>
  </defs>
  <g
     id="Brandmark"
     transform="translate(-118.76326,-120.768)">
    <polygon
       points="119.561,280.049 140.901,200.408 199.202,142.108 278.842,120.768 358.482,142.108 416.783,200.408 438.122,280.049 416.783,359.689 358.482,417.99 278.842,439.329 199.202,417.99 140.901,359.689 "
       id="polygon11"
       style="fill:url(#linear-gradient)" />
    <path
       d="m 413.09,364.32 a 1.6,1.6 0 0 1 -0.445,-0.067 c -10.133,-3 -19.18,-6.019 -27.664,-9.219 -13.023,-4.917 -25.043,-11.808 -36.668,-18.476 -12.144,-6.961 -24.7,-14.164 -38.25,-18.981 -21.082,-7.492 -44.324,-13.1 -75.359,-18.191 l -3.442,-0.59 a 85.078,85.078 0 0 0 -13.945,-1.605 c -17.445,0.125 -29.16,12.312 -35.91,22.515 -10.4,15.707 -23.113,33 -38.531,42.145 a 1.568,1.568 0 1 1 -1.6,-2.695 c 14.875,-8.825 27.312,-25.77 37.516,-41.184 10.289,-15.539 23.6,-23.809 38.5,-23.914 5,-0.141 9.769,0.82 14.511,1.652 l 3.406,0.582 c 31.227,5.121 54.633,10.774 75.9,18.332 13.82,4.91 26.5,12.184 38.762,19.215 11.519,6.6 23.429,13.434 36.218,18.258 8.411,3.176 17.387,6.168 27.446,9.148 a 1.57,1.57 0 0 1 -0.446,3.075 z"
       id="path13"
       style="fill:#ffffff" />
    <path
       d="m 417.266,358 a 0.827,0.827 0 0 1 -0.215,-0.031 c -11.586,-3.285 -21.75,-6.555 -31.074,-10 -14.086,-5.195 -27.187,-12.6 -39.855,-19.77 -10.762,-6.085 -21.887,-12.375 -33.578,-17.293 -25.043,-10.535 -45.625,-18.015 -64.774,-23.542 -19.734,-5.715 -38.4,0.292 -58.707,18.89 A 376.274,376.274 0 0 1 156.626,333.2 l -2.211,1.625 a 137.962,137.962 0 0 1 -16.774,11.093 0.78241293,0.78241293 0 0 1 -0.734,-1.382 135.915,135.915 0 0 0 16.578,-10.977 l 2.219,-1.625 A 374.531,374.531 0 0 0 188,305.1 c 20.753,-19 39.882,-25.113 60.207,-19.242 19.207,5.547 39.843,13.047 64.945,23.605 11.773,4.953 22.941,11.266 33.738,17.375 12.617,7.133 25.66,14.508 39.629,19.664 9.285,3.426 19.41,6.684 30.961,9.957 a 0.785,0.785 0 0 1 -0.215,1.539 z"
       id="path15"
       style="fill:#ffffff" />
    <path
       d="m 418.915,351.788 a 0.941,0.941 0 0 1 -0.207,-0.027 c -12.805,-3.5 -23.4,-6.812 -33.329,-10.422 -16.859,-6.129 -32.425,-15.976 -47.48,-25.5 -7.238,-4.578 -14.723,-9.312 -22.211,-13.539 -4.219,-2.383 -8.582,-5.078 -13.207,-7.929 -15.125,-9.34 -32.266,-19.922 -48.777,-21.7 -20.766,-2.234 -36.414,8 -52.926,18.852 -3.149,2.07 -6.4,4.207 -9.672,6.238 -11.816,7.332 -25.891,15.9 -40.676,23.864 -1.586,0.855 -3.281,1.824 -5.051,2.835 -3.625,2.071 -7.734,4.422 -11.867,6.309 a 0.785,0.785 0 1 1 -0.648,-1.43 c 4.062,-1.851 8.14,-4.183 11.738,-6.242 1.781,-1.019 3.484,-1.992 5.086,-2.855 14.746,-7.942 28.793,-16.5 40.59,-23.817 3.254,-2.015 6.5,-4.148 9.641,-6.211 16.753,-11.007 32.632,-21.41 53.953,-19.105 16.863,1.82 34.168,12.5 49.433,21.93 4.61,2.847 8.965,5.535 13.156,7.9 7.52,4.246 15.024,8.992 22.278,13.582 14.98,9.481 30.476,19.285 47.18,25.352 9.89,3.6 20.441,6.9 33.2,10.382 a 0.785,0.785 0 0 1 -0.207,1.543 z"
       id="path17"
       style="fill:#ffffff" />
    <path
       d="m 420.446,346.792 a 1.461,1.461 0 0 1 -0.383,-0.05 328.779,328.779 0 0 1 -35.707,-10.84 c -20.566,-7.715 -38.316,-23.008 -55.484,-37.8 -4.782,-4.117 -9.489,-8.176 -14.168,-11.985 l -3.121,-2.546 c -19.938,-16.309 -40.555,-33.18 -68.164,-20.9 -10.7,4.762 -21.426,10.074 -31.8,15.211 -7.141,3.539 -14.286,7.078 -21.477,10.473 -13.656,6.449 -29.574,13.91 -45.672,20.863 -1.812,0.789 -3.793,1.754 -5.871,2.769 -2.914,1.422 -5.926,2.895 -9.023,4.149 a 1.5682184,1.5682184 0 0 1 -1.18,-2.906 c 3,-1.215 5.961,-2.661 8.828,-4.059 2.121,-1.039 4.145,-2.027 6,-2.828 16.051,-6.942 31.941,-14.387 45.578,-20.824 7.172,-3.387 14.3,-6.918 21.422,-10.446 10.4,-5.152 21.148,-10.48 31.914,-15.269 29.352,-13.067 50.746,4.418 71.422,21.336 l 3.113,2.543 c 4.711,3.828 9.336,7.816 14.239,12.039 16.957,14.609 34.5,29.715 54.539,37.234 a 325.911,325.911 0 0 0 35.378,10.744 1.569,1.569 0 0 1 -0.383,3.09 z"
       id="path19"
       style="fill:#ffffff" />
    <path
       d="m 422,340.152 a 0.871,0.871 0 0 1 -0.176,-0.02 c -11.106,-2.57 -25.672,-6.265 -39.867,-12.121 -24.11,-9.957 -38.754,-31.426 -52.914,-52.184 -4.43,-6.5 -9.012,-13.214 -13.758,-19.351 -15.778,-20.414 -41.957,-13.66 -62.989,-5.5 -29.125,11.3 -52.839,20.41 -74.632,28.687 -13.989,5.313 -27.7,10.5 -41.676,15.579 -1.6,0.578 -3.383,1.359 -5.27,2.183 -1.855,0.809 -3.777,1.649 -5.718,2.387 a 0.78517291,0.78517291 0 0 1 -0.555,-1.469 c 1.906,-0.723 3.805,-1.555 5.644,-2.355 1.914,-0.836 3.719,-1.625 5.368,-2.223 13.961,-5.066 27.668,-10.258 41.652,-15.57 21.789,-8.274 45.5,-17.387 74.617,-28.68 21.555,-8.356 48.383,-15.231 64.8,6 4.773,6.176 9.367,12.914 13.812,19.43 14.032,20.57 28.539,41.839 52.219,51.613 14.086,5.816 28.574,9.492 39.617,12.043 a 0.785,0.785 0 0 1 -0.175,1.551 z"
       id="path21"
       style="fill:#ffffff" />
    <path
       d="m 424.415,331.831 a 1.553,1.553 0 0 1 -0.3,-0.027 c -14.871,-2.91 -32.164,-7.016 -47.664,-15.437 -17.992,-9.786 -28,-27.93 -37.676,-45.481 -3.621,-6.57 -7.367,-13.367 -11.426,-19.457 -10.41,-15.633 -28.211,-23.16 -44.316,-18.754 -4.895,1.344 -9.836,3 -14.617,4.6 -2.426,0.812 -4.848,1.625 -7.274,2.4 l -140.336,44.84 a 1.5662427,1.5662427 0 1 1 -0.953,-2.984 l 140.336,-44.84 c 2.41,-0.774 4.82,-1.578 7.231,-2.387 4.82,-1.613 9.8,-3.281 14.785,-4.648 17.406,-4.782 36.6,3.281 47.754,20.039 4.128,6.2 7.91,13.051 11.562,19.679 9.461,17.157 19.242,34.895 36.43,44.239 15.125,8.218 32.129,12.254 46.765,15.117 a 1.567,1.567 0 0 1 -0.3,3.105 z"
       id="path23"
       style="fill:#ffffff" />
    <path
       d="m 427.047,321.124 a 0.739,0.739 0 0 1 -0.226,-0.035 c -17.84,-5.426 -36.625,-12.16 -53.149,-24.59 -14.781,-11.117 -27.16,-25.988 -39.128,-40.371 -4.895,-5.883 -9.961,-11.965 -15.043,-17.6 -15.215,-16.864 -35.211,-20.3 -62.922,-10.778 -31.243,10.727 -57.032,19.813 -81.168,28.59 -15.063,5.477 -31.059,11.344 -46.512,17.606 -1.426,0.578 -3.266,1.191 -5.215,1.843 -0.89,0.3 -1.816,0.61 -2.762,0.934 a 0.8,0.8 0 0 1 -1,-0.488 0.784,0.784 0 0 1 0.489,-1 c 0.945,-0.325 1.875,-0.637 2.769,-0.938 1.93,-0.641 3.746,-1.25 5.129,-1.808 15.477,-6.27 31.488,-12.145 46.559,-17.629 24.148,-8.782 49.949,-17.868 81.2,-28.6 28.375,-9.746 48.9,-6.188 64.594,11.215 5.1,5.656 10.179,11.75 15.086,17.648 11.91,14.309 24.226,29.11 38.867,40.121 16.324,12.282 34.957,18.957 52.656,24.34 a 0.784,0.784 0 0 1 -0.227,1.535 z"
       id="path25"
       style="fill:#ffffff" />
    <path
       d="m 431.825,303.913 a 1.564,1.564 0 0 1 -0.559,-0.105 c -16.57,-6.32 -34.109,-13.289 -50.324,-22.836 -18.707,-11.02 -35,-25.633 -50.754,-39.766 -5.562,-4.988 -11.316,-10.148 -17.082,-15.07 -18.5,-15.785 -39.777,-18.418 -66.93,-8.309 -26.847,10 -50.367,19.223 -71.9,28.2 -13.582,5.668 -28.055,11.855 -41.871,18.715 -1.356,0.671 -2.844,1.367 -4.4,2.093 -1.433,0.668 -2.921,1.364 -4.425,2.1 a 1.569,1.569 0 1 1 -1.375,-2.82 c 1.515,-0.742 3.027,-1.446 4.476,-2.121 1.528,-0.715 2.992,-1.395 4.328,-2.059 13.9,-6.9 28.43,-13.113 42.059,-18.8 21.57,-8.992 45.129,-18.23 72.016,-28.242 28.332,-10.555 50.593,-7.742 70.058,8.863 5.8,4.946 11.563,10.117 17.141,15.117 15.64,14.032 31.812,28.539 50.254,39.4 16,9.422 33.4,16.336 49.847,22.609 a 1.569,1.569 0 0 1 -0.558,3.035 z"
       id="path27"
       style="fill:#ffffff" />
    <path
       d="m 437.188,283.691 a 1.533,1.533 0 0 1 -0.7,-0.164 c -37.586,-18.774 -76.113,-39.739 -117.781,-64.094 -25.2,-14.734 -46.61,-25.246 -73.414,-15.859 -18.27,6.394 -36.192,14.082 -54.477,22.054 -13.824,6.031 -30.109,13.383 -46.047,22.16 l -2.863,1.563 a 156.539,156.539 0 0 0 -15.414,9.183 1.567,1.567 0 1 1 -1.8,-2.562 161.962,161.962 0 0 1 15.719,-9.375 l 2.847,-1.559 c 16.055,-8.836 32.418,-16.222 46.309,-22.285 18.34,-8 36.32,-15.711 54.691,-22.14 28.094,-9.836 50.133,0.968 76.04,16.109 41.605,24.324 80.074,45.258 117.593,64 a 1.567,1.567 0 0 1 -0.7,2.969 z"
       id="path29"
       style="fill:#ffffff" />
    <path
       d="m 434.911,267.636 a 0.786,0.786 0 0 1 -0.41,-0.117 c -18.606,-11.391 -36.915,-22.4 -56.336,-31.817 -13.911,-6.75 -28.422,-12.933 -42.457,-18.91 -5.516,-2.351 -11.028,-4.7 -16.516,-7.086 -3.422,-1.484 -6.813,-3.031 -10.2,-4.57 -17.7,-8.055 -34.395,-15.66 -53.942,-15.051 -19.453,0.61 -37.531,9.508 -55.015,18.114 q -2.79,1.377 -5.555,2.722 -3.228,1.57 -6.594,3.188 c -20.008,9.633 -42.687,20.554 -59.652,35.636 a 0.783,0.783 0 1 1 -1.039,-1.171 c 17.125,-15.227 39.91,-26.2 60.012,-35.879 q 3.357,-1.617 6.586,-3.184 c 1.843,-0.894 3.691,-1.805 5.55,-2.719 17.633,-8.679 35.867,-17.656 55.66,-18.277 19.86,-0.555 37.555,7.418 54.637,15.191 3.379,1.539 6.766,3.078 10.176,4.563 q 8.226,3.574 16.5,7.078 c 14.051,5.988 28.582,12.18 42.531,18.941 19.481,9.454 37.828,20.481 56.469,31.895 a 0.785,0.785 0 0 1 -0.41,1.453 z"
       id="path31"
       style="fill:#ffffff" />
    <path
       d="m 429.922,250.167 a 1.555,1.555 0 0 1 -0.953,-0.32 c -16.324,-12.48 -32.57,-24.387 -51.793,-32.891 -13.5,-5.972 -28.183,-10.125 -42.375,-14.144 -4.578,-1.293 -9.136,-2.586 -13.648,-3.93 -5.785,-1.73 -11.563,-3.531 -17.348,-5.332 -11.351,-3.539 -23.09,-7.2 -34.73,-10.219 -20.864,-5.429 -42.414,-1.566 -69.864,12.512 -22.457,11.52 -48.121,25.93 -68.183,45.465 a 1.5692231,1.5692231 0 0 1 -2.188,-2.25 c 20.36,-19.824 46.274,-34.379 68.942,-46 18.972,-9.727 44.3,-19.961 72.082,-12.762 11.715,3.047 23.488,6.715 34.875,10.266 5.773,1.8 11.539,3.594 17.312,5.316 4.5,1.344 9.043,2.629 13.6,3.922 14.3,4.047 29.086,8.231 42.789,14.293 19.539,8.641 35.949,20.668 52.434,33.266 a 1.566,1.566 0 0 1 -0.954,2.812 z"
       id="path33"
       style="fill:#ffffff" />
  </g>
  <g
     id="EBRAINS"
     transform="translate(-118.76326,-120.768)"
     style="fill:#ffffff">
    <path
       d="m 520.719,219.191 h 77.192 v 15.992 H 539.294 V 272.7 h 54.589 v 15.929 h -54.589 v 37.7 h 59.339 v 15.992 h -77.914 z"
       id="path36"
       style="fill:#ffffff" />
    <path
       d="m 630.676,219.191 h 45.09 c 26.211,0 38.836,14.129 38.836,32.343 0,15.391 -9.437,23.086 -20.738,25.973 v 1.2 c 12.2,0.66 25.551,11.422 25.551,30.481 0,18.875 -12.926,33.125 -41.543,33.125 h -47.2 z m 43.469,53.265 c 12.5,0 22.242,-7.574 22.242,-19.476 0,-10.223 -7.035,-17.977 -21.761,-17.977 h -25.372 v 37.453 z m 1.922,53.926 c 17.855,0 24.891,-7.754 24.891,-18.094 0,-11.722 -9.321,-21.343 -24.231,-21.343 h -27.473 v 39.437 z"
       id="path38"
       style="fill:#ffffff" />
    <path
       d="m 751.4,219.191 h 43.887 c 28.558,0 42.625,15.933 42.625,38.6 0,16.532 -7.516,29.1 -22.606,34.688 l 27.3,49.84 h -21.172 l -25.008,-46.594 h -26.453 v 46.594 H 751.4 Z m 42.14,60.539 c 18.1,0 25.671,-8.055 25.671,-21.942 0,-13.949 -7.574,-22.664 -25.914,-22.664 h -23.324 v 44.606 z"
       id="path40"
       style="fill:#ffffff" />
    <path
       d="m 861.059,342.316 44.309,-123.125 h 21.461 l 44.308,123.125 H 951.419 L 940.176,309.73 h -48.093 l -11.3,32.586 z M 934.766,294.1 916.61,241.554 h -0.961 L 897.493,294.1 Z"
       id="path42"
       style="fill:#ffffff" />
    <path
       d="M 1008.536,342.316 H 989.958 V 219.191 h 18.578 z"
       id="path44"
       style="fill:#ffffff" />
    <path
       d="m 1145.618,342.316 h -17.074 l -62.583,-90.3 h -1.144 v 90.3 h -18.574 V 219.191 h 17.191 l 62.645,90.422 h 1.144 v -90.422 h 18.395 z"
       id="path46"
       style="fill:#ffffff" />
    <path
       d="m 1223.118,233.558 c -15.149,0 -24.707,7.758 -24.707,18.219 -0.063,11.781 12.746,16.293 22.363,18.757 l 12.023,3.125 c 15.633,3.848 35.411,12.446 35.411,34.629 0,20.86 -16.653,36.071 -45.571,36.071 -27.593,0 -44.847,-13.766 -46.051,-36.071 h 18.637 c 1.082,13.407 12.985,19.778 27.293,19.778 15.813,0 27.3,-7.934 27.3,-19.957 0,-10.942 -10.16,-15.27 -23.328,-18.758 l -14.547,-3.969 c -19.781,-5.351 -32.047,-15.39 -32.047,-32.523 0,-21.223 18.942,-35.352 43.649,-35.352 25.011,0 42.445,14.309 42.984,34.027 h -17.917 c -1.324,-11.363 -11.363,-17.976 -25.492,-17.976 z"
       id="path48"
       style="fill:#ffffff" />
  </g>
  <rect
     width="1437.496"
     height="563.47699"
     id="rect51"
     x="-118.76326"
     y="-120.768"
     style="fill:none" />
</svg>
