<svg id="Layer_1" data-name="Layer 1" xmlns="http://www.w3.org/2000/svg" xmlns:xlink="http://www.w3.org/1999/xlink" viewBox="0 0 1437.496 563.477"><defs><linearGradient id="linear-gradient" x1="119.561" y1="280.049" x2="438.122" y2="280.049" gradientUnits="userSpaceOnUse"><stop offset="0" stop-color="#ffdb00"/><stop offset="0.5" stop-color="#56c54e"/><stop offset="1" stop-color="#007f7b"/></linearGradient></defs><g id="Brandmark"><polygon points="438.122 280.049 416.783 359.689 358.482 417.99 278.842 439.329 199.202 417.99 140.901 359.689 119.561 280.049 140.901 200.408 199.202 142.108 278.842 120.768 358.482 142.108 416.783 200.408 438.122 280.049" fill="url(#linear-gradient)"/><path d="M413.09,364.32a1.6,1.6,0,0,1-.445-.067c-10.133-3-19.18-6.019-27.664-9.219-13.023-4.917-25.043-11.808-36.668-18.476-12.144-6.961-24.7-14.164-38.25-18.981-21.082-7.492-44.324-13.1-75.359-18.191l-3.442-.59a85.078,85.078,0,0,0-13.945-1.605c-17.445.125-29.16,12.312-35.91,22.515-10.4,15.707-23.113,33-38.531,42.145a1.568,1.568,0,1,1-1.6-2.695c14.875-8.825,27.312-25.77,37.516-41.184,10.289-15.539,23.6-23.809,38.5-23.914,5-.141,9.769.82,14.511,1.652l3.406.582c31.227,5.121,54.633,10.774,75.9,18.332,13.82,4.91,26.5,12.184,38.762,19.215,11.519,6.6,23.429,13.434,36.218,18.258,8.411,3.176,17.387,6.168,27.446,9.148a1.57,1.57,0,0,1-.446,3.075Z" fill="#fff"/><path d="M417.266,358a.827.827,0,0,1-.215-.031c-11.586-3.285-21.75-6.555-31.074-10-14.086-5.195-27.187-12.6-39.855-19.77-10.762-6.085-21.887-12.375-33.578-17.293-25.043-10.535-45.625-18.015-64.774-23.542-19.734-5.715-38.4.292-58.707,18.89A376.274,376.274,0,0,1,156.626,333.2l-2.211,1.625a137.962,137.962,0,0,1-16.774,11.093.782.782,0,0,1-.734-1.382,135.915,135.915,0,0,0,16.578-10.977l2.219-1.625A374.531,374.531,0,0,0,188,305.1c20.753-19,39.882-25.113,60.207-19.242,19.207,5.547,39.843,13.047,64.945,23.605,11.773,4.953,22.941,11.266,33.738,17.375,12.617,7.133,25.66,14.508,39.629,19.664,9.285,3.426,19.41,6.684,30.961,9.957a.785.785,0,0,1-.215,1.539Z" fill="#fff"/><path d="M418.915,351.788a.941.941,0,0,1-.207-.027c-12.805-3.5-23.4-6.812-33.329-10.422-16.859-6.129-32.425-15.976-47.48-25.5-7.238-4.578-14.723-9.312-22.211-13.539-4.219-2.383-8.582-5.078-13.207-7.929-15.125-9.34-32.266-19.922-48.777-21.7-20.766-2.234-36.414,8-52.926,18.852-3.149,2.07-6.4,4.207-9.672,6.238-11.816,7.332-25.891,15.9-40.676,23.864-1.586.855-3.281,1.824-5.051,2.835-3.625,2.071-7.734,4.422-11.867,6.309a.785.785,0,1,1-.648-1.43c4.062-1.851,8.14-4.183,11.738-6.242,1.781-1.019,3.484-1.992,5.086-2.855,14.746-7.942,28.793-16.5,40.59-23.817,3.254-2.015,6.5-4.148,9.641-6.211,16.753-11.007,32.632-21.41,53.953-19.105,16.863,1.82,34.168,12.5,49.433,21.93,4.61,2.847,8.965,5.535,13.156,7.9,7.52,4.246,15.024,8.992,22.278,13.582,14.98,9.481,30.476,19.285,47.18,25.352,9.89,3.6,20.441,6.9,33.2,10.382a.785.785,0,0,1-.207,1.543Z" fill="#fff"/><path d="M420.446,346.792a1.461,1.461,0,0,1-.383-.05,328.779,328.779,0,0,1-35.707-10.84c-20.566-7.715-38.316-23.008-55.484-37.8-4.782-4.117-9.489-8.176-14.168-11.985l-3.121-2.546c-19.938-16.309-40.555-33.18-68.164-20.9-10.7,4.762-21.426,10.074-31.8,15.211-7.141,3.539-14.286,7.078-21.477,10.473-13.656,6.449-29.574,13.91-45.672,20.863-1.812.789-3.793,1.754-5.871,2.769-2.914,1.422-5.926,2.895-9.023,4.149a1.568,1.568,0,0,1-1.18-2.906c3-1.215,5.961-2.661,8.828-4.059,2.121-1.039,4.145-2.027,6-2.828,16.051-6.942,31.941-14.387,45.578-20.824,7.172-3.387,14.3-6.918,21.422-10.446,10.4-5.152,21.148-10.48,31.914-15.269,29.352-13.067,50.746,4.418,71.422,21.336l3.113,2.543c4.711,3.828,9.336,7.816,14.239,12.039,16.957,14.609,34.5,29.715,54.539,37.234A325.911,325.911,0,0,0,420.829,343.7a1.569,1.569,0,0,1-.383,3.09Z" fill="#fff"/><path d="M422,340.152a.871.871,0,0,1-.176-.02c-11.106-2.57-25.672-6.265-39.867-12.121-24.11-9.957-38.754-31.426-52.914-52.184-4.43-6.5-9.012-13.214-13.758-19.351-15.778-20.414-41.957-13.66-62.989-5.5-29.125,11.3-52.839,20.41-74.632,28.687-13.989,5.313-27.7,10.5-41.676,15.579-1.6.578-3.383,1.359-5.27,2.183-1.855.809-3.777,1.649-5.718,2.387a.785.785,0,0,1-.555-1.469c1.906-.723,3.805-1.555,5.644-2.355,1.914-.836,3.719-1.625,5.368-2.223,13.961-5.066,27.668-10.258,41.652-15.57,21.789-8.274,45.5-17.387,74.617-28.68,21.555-8.356,48.383-15.231,64.8,6,4.773,6.176,9.367,12.914,13.812,19.43,14.032,20.57,28.539,41.839,52.219,51.613,14.086,5.816,28.574,9.492,39.617,12.043a.785.785,0,0,1-.175,1.551Z" fill="#fff"/><path d="M424.415,331.831a1.553,1.553,0,0,1-.3-.027c-14.871-2.91-32.164-7.016-47.664-15.437-17.992-9.786-28-27.93-37.676-45.481-3.621-6.57-7.367-13.367-11.426-19.457-10.41-15.633-28.211-23.16-44.316-18.754-4.895,1.344-9.836,3-14.617,4.6-2.426.812-4.848,1.625-7.274,2.4l-140.336,44.84a1.566,1.566,0,1,1-.953-2.984l140.336-44.84c2.41-.774,4.82-1.578,7.231-2.387,4.82-1.613,9.8-3.281,14.785-4.648,17.406-4.782,36.6,3.281,47.754,20.039,4.128,6.2,7.91,13.051,11.562,19.679,9.461,17.157,19.242,34.895,36.43,44.239,15.125,8.218,32.129,12.254,46.765,15.117a1.567,1.567,0,0,1-.3,3.105Z" fill="#fff"/><path d="M427.047,321.124a.739.739,0,0,1-.226-.035c-17.84-5.426-36.625-12.16-53.149-24.59-14.781-11.117-27.16-25.988-39.128-40.371-4.895-5.883-9.961-11.965-15.043-17.6-15.215-16.864-35.211-20.3-62.922-10.778-31.243,10.727-57.032,19.813-81.168,28.59-15.063,5.477-31.059,11.344-46.512,17.606-1.426.578-3.266,1.191-5.215,1.843-.89.3-1.816.61-2.762.934a.8.8,0,0,1-1-.488.784.784,0,0,1,.489-1c.945-.325,1.875-.637,2.769-.938,1.93-.641,3.746-1.25,5.129-1.808,15.477-6.27,31.488-12.145,46.559-17.629,24.148-8.782,49.949-17.868,81.2-28.6,28.375-9.746,48.9-6.188,64.594,11.215,5.1,5.656,10.179,11.75,15.086,17.648,11.91,14.309,24.226,29.11,38.867,40.121,16.324,12.282,34.957,18.957,52.656,24.34a.784.784,0,0,1-.227,1.535Z" fill="#fff"/><path d="M431.825,303.913a1.564,1.564,0,0,1-.559-.105c-16.57-6.32-34.109-13.289-50.324-22.836-18.707-11.02-35-25.633-50.754-39.766-5.562-4.988-11.316-10.148-17.082-15.07-18.5-15.785-39.777-18.418-66.93-8.309-26.847,10-50.367,19.223-71.9,28.2-13.582,5.668-28.055,11.855-41.871,18.715-1.356.671-2.844,1.367-4.4,2.093-1.433.668-2.921,1.364-4.425,2.1a1.569,1.569,0,1,1-1.375-2.82c1.515-.742,3.027-1.446,4.476-2.121,1.528-.715,2.992-1.395,4.328-2.059,13.9-6.9,28.43-13.113,42.059-18.8,21.57-8.992,45.129-18.23,72.016-28.242,28.332-10.555,50.593-7.742,70.058,8.863,5.8,4.946,11.563,10.117,17.141,15.117,15.64,14.032,31.812,28.539,50.254,39.4,16,9.422,33.4,16.336,49.847,22.609a1.569,1.569,0,0,1-.558,3.035Z" fill="#fff"/><path d="M437.188,283.691a1.533,1.533,0,0,1-.7-.164c-37.586-18.774-76.113-39.739-117.781-64.094-25.2-14.734-46.61-25.246-73.414-15.859-18.27,6.394-36.192,14.082-54.477,22.054-13.824,6.031-30.109,13.383-46.047,22.16l-2.863,1.563a156.539,156.539,0,0,0-15.414,9.183,1.567,1.567,0,1,1-1.8-2.562,161.962,161.962,0,0,1,15.719-9.375l2.847-1.559c16.055-8.836,32.418-16.222,46.309-22.285,18.34-8,36.32-15.711,54.691-22.14,28.094-9.836,50.133.968,76.04,16.109,41.605,24.324,80.074,45.258,117.593,64a1.567,1.567,0,0,1-.7,2.969Z" fill="#fff"/><path d="M434.911,267.636a.786.786,0,0,1-.41-.117c-18.606-11.391-36.915-22.4-56.336-31.817-13.911-6.75-28.422-12.933-42.457-18.91-5.516-2.351-11.028-4.7-16.516-7.086-3.422-1.484-6.813-3.031-10.2-4.57-17.7-8.055-34.395-15.66-53.942-15.051-19.453.61-37.531,9.508-55.015,18.114q-2.79,1.377-5.555,2.722-3.228,1.57-6.594,3.188c-20.008,9.633-42.687,20.554-59.652,35.636a.783.783,0,1,1-1.039-1.171c17.125-15.227,39.91-26.2,60.012-35.879q3.357-1.617,6.586-3.184c1.843-.894,3.691-1.805,5.55-2.719,17.633-8.679,35.867-17.656,55.66-18.277,19.86-.555,37.555,7.418,54.637,15.191,3.379,1.539,6.766,3.078,10.176,4.563q8.226,3.574,16.5,7.078c14.051,5.988,28.582,12.18,42.531,18.941,19.481,9.454,37.828,20.481,56.469,31.895a.785.785,0,0,1-.41,1.453Z" fill="#fff"/><path d="M429.922,250.167a1.555,1.555,0,0,1-.953-.32c-16.324-12.48-32.57-24.387-51.793-32.891-13.5-5.972-28.183-10.125-42.375-14.144-4.578-1.293-9.136-2.586-13.648-3.93-5.785-1.73-11.563-3.531-17.348-5.332-11.351-3.539-23.09-7.2-34.73-10.219-20.864-5.429-42.414-1.566-69.864,12.512-22.457,11.52-48.121,25.93-68.183,45.465a1.569,1.569,0,0,1-2.188-2.25c20.36-19.824,46.274-34.379,68.942-46,18.972-9.727,44.3-19.961,72.082-12.762,11.715,3.047,23.488,6.715,34.875,10.266,5.773,1.8,11.539,3.594,17.312,5.316,4.5,1.344,9.043,2.629,13.6,3.922,14.3,4.047,29.086,8.231,42.789,14.293,19.539,8.641,35.949,20.668,52.434,33.266a1.566,1.566,0,0,1-.954,2.812Z" fill="#fff"/></g><g id="EBRAINS"><path d="M520.719,219.191h77.192v15.992H539.294V272.7h54.589v15.929H539.294v37.7h59.339v15.992H520.719Z"/><path d="M630.676,219.191h45.09c26.211,0,38.836,14.129,38.836,32.343,0,15.391-9.437,23.086-20.738,25.973v1.2c12.2.66,25.551,11.422,25.551,30.481,0,18.875-12.926,33.125-41.543,33.125h-47.2Zm43.469,53.265c12.5,0,22.242-7.574,22.242-19.476,0-10.223-7.035-17.977-21.761-17.977H649.254v37.453Zm1.922,53.926c17.855,0,24.891-7.754,24.891-18.094,0-11.722-9.321-21.343-24.231-21.343H649.254v39.437Z"/><path d="M751.4,219.191h43.887c28.558,0,42.625,15.933,42.625,38.6,0,16.532-7.516,29.1-22.606,34.688l27.3,49.84H821.434l-25.008-46.594H769.973v46.594H751.4ZM793.54,279.73c18.1,0,25.671-8.055,25.671-21.942,0-13.949-7.574-22.664-25.914-22.664H769.973V279.73Z"/><path d="M861.059,342.316l44.309-123.125h21.461l44.308,123.125H951.419L940.176,309.73H892.083l-11.3,32.586ZM934.766,294.1,916.61,241.554h-.961L897.493,294.1Z"/><path d="M1008.536,342.316H989.958V219.191h18.578Z"/><path d="M1145.618,342.316h-17.074l-62.583-90.3h-1.144v90.3h-18.574V219.191h17.191l62.645,90.422h1.144V219.191h18.395Z"/><path d="M1223.118,233.558c-15.149,0-24.707,7.758-24.707,18.219-.063,11.781,12.746,16.293,22.363,18.757l12.023,3.125c15.633,3.848,35.411,12.446,35.411,34.629,0,20.86-16.653,36.071-45.571,36.071-27.593,0-44.847-13.766-46.051-36.071h18.637c1.082,13.407,12.985,19.778,27.293,19.778,15.813,0,27.3-7.934,27.3-19.957,0-10.942-10.16-15.27-23.328-18.758l-14.547-3.969c-19.781-5.351-32.047-15.39-32.047-32.523,0-21.223,18.942-35.352,43.649-35.352,25.011,0,42.445,14.309,42.984,34.027H1248.61C1247.286,240.171,1237.247,233.558,1223.118,233.558Z"/></g><rect width="1437.496" height="563.477" fill="none"/></svg>